<svg xmlns="http://www.w3.org/2000/svg" viewBox="0 0 1127.81 360"><defs><style>.cls-1{fill:none;}.cls-2{fill:#80407e;}.cls-3,.cls-4{fill:#e6a23a;}.cls-4{font-size:147.41px;font-family:UltimaPDbc-UltraLightSmallCaps, UltimaPDbc;font-weight:100;letter-spacing:0.03em;}</style></defs><title>horizontal.logo</title><g id="Calque_2" data-name="Calque 2"><g id="Calque_1-2" data-name="Calque 1"><polygon class="cls-1" points="300 180 240 180 270 144 300 180"/><polygon class="cls-1" points="300 180 270 216 240 180 300 180"/><polygon class="cls-1" points="120 180 60 180 90 144 120 180"/><polygon class="cls-1" points="120 180 90 216 60 180 120 180"/><polygon class="cls-2" points="180 252 90 360 0 252 60 180 90 216 120 180 180 252"/><polygon class="cls-2" points="360 252 270 360 180 252 240 180 270 216 300 180 360 252"/><polygon class="cls-3" points="180 108 120 180 90 144 60 180 0 108 90 0 180 108"/><polygon class="cls-3" points="360 108 300 180 270 144 240 180 180 108 270 0 360 108"/><polygon class="cls-2" points="360 180 360 252 300 180 360 180"/><polygon class="cls-2" points="360 108 360 180 300 180 360 108"/><polygon class="cls-3" points="240 180 180 252 120 180 240 180"/><polygon class="cls-2" points="240 180 120 180 180 108 240 180"/><polygon class="cls-3" points="60 180 0 252 0 180 60 180"/><polygon class="cls-3" points="60 180 0 180 0 108 60 180"/><text/><text class="cls-4" transform="translate(405 234.3) scale(0.94 1)">Meta<tspan class="cls-2" x="316.48" y="0">Watch</tspan></text></g></g></svg>