<svg xmlns="http://www.w3.org/2000/svg" viewBox="0 0 377.56 478.17"><defs><style>.cls-1{fill:none;}.cls-2,.cls-5{fill:#80407e;}.cls-3,.cls-4{fill:#e6a23a;}.cls-4{font-size:77px;font-family:UltimaPDbc-UltraLightSmallCaps, UltimaPDbc;font-weight:100;letter-spacing:0.03em;}.cls-5{letter-spacing:0.03em;}</style></defs><title>vertical.logo</title><g id="Calque_2" data-name="Calque 2"><g id="Calque_1-2" data-name="Calque 1"><polygon class="cls-1" points="309 180 249 180 279 144 309 180"/><polygon class="cls-1" points="309 180 279 216 249 180 309 180"/><polygon class="cls-1" points="129 180 69 180 99 144 129 180"/><polygon class="cls-1" points="129 180 99 216 69 180 129 180"/><polygon class="cls-2" points="189 252 99 360 9 252 69 180 99 216 129 180 189 252"/><polygon class="cls-2" points="369 252 279 360 189 252 249 180 279 216 309 180 369 252"/><polygon class="cls-3" points="189 108 129 180 99 144 69 180 9 108 99 0 189 108"/><polygon class="cls-3" points="369 108 309 180 279 144 249 180 189 108 279 0 369 108"/><polygon class="cls-2" points="369 180 369 252 309 180 369 180"/><polygon class="cls-2" points="369 108 369 180 309 180 369 108"/><polygon class="cls-3" points="249 180 189 252 129 180 249 180"/><polygon class="cls-2" points="249 180 129 180 189 108 249 180"/><polygon class="cls-3" points="69 180 9 252 9 180 69 180"/><polygon class="cls-3" points="69 180 9 180 9 108 69 180"/><text class="cls-4" transform="translate(0 459) scale(0.94 1)">Meta<tspan class="cls-5" x="165.32" y="0">Watch</tspan></text><text/></g></g></svg>